<?xml version="1.0" encoding="UTF-8" standalone="no"?>
<!DOCTYPE svg PUBLIC "-//W3C//DTD SVG 1.1//EN"
 "http://www.w3.org/Graphics/SVG/1.1/DTD/svg11.dtd">
<!-- Generated by graphviz version 2.48.0 (20210717.1556)
 -->
<!-- Pages: 1 -->
<svg width="2762pt" height="116pt"
 viewBox="0.00 0.00 2762.23 116.00" xmlns="http://www.w3.org/2000/svg" xmlns:xlink="http://www.w3.org/1999/xlink">
<g id="graph0" class="graph" transform="scale(1 1) rotate(0) translate(4 112)">
<polygon fill="white" stroke="transparent" points="-4,4 -4,-112 2758.23,-112 2758.23,4 -4,4"/>
<!-- PseudoRandomNumberGenerator -->
<g id="node1" class="node">
<title>PseudoRandomNumberGenerator</title>
<ellipse fill="none" stroke="black" cx="133.89" cy="-90" rx="133.78" ry="18"/>
<text text-anchor="middle" x="133.89" y="-86.3" font-family="Times,serif" font-size="14.00">PseudoRandomNumberGenerator</text>
</g>
<!-- RandomNumberGenerator -->
<g id="node2" class="node">
<title>RandomNumberGenerator</title>
<ellipse fill="none" stroke="black" cx="133.89" cy="-18" rx="107.78" ry="18"/>
<text text-anchor="middle" x="133.89" y="-14.3" font-family="Times,serif" font-size="14.00">RandomNumberGenerator</text>
</g>
<!-- PseudoRandomNumberGenerator&#45;&gt;RandomNumberGenerator -->
<g id="edge1" class="edge">
<title>PseudoRandomNumberGenerator&#45;&gt;RandomNumberGenerator</title>
<path fill="none" stroke="black" d="M133.89,-71.7C133.89,-63.98 133.89,-54.71 133.89,-46.11"/>
<polygon fill="black" stroke="black" points="137.39,-46.1 133.89,-36.1 130.39,-46.1 137.39,-46.1"/>
</g>
<!-- CheckersDeterministicRandomPlayer -->
<g id="node3" class="node">
<title>CheckersDeterministicRandomPlayer</title>
<ellipse fill="none" stroke="black" cx="433.89" cy="-90" rx="148.37" ry="18"/>
<text text-anchor="middle" x="433.89" y="-86.3" font-family="Times,serif" font-size="14.00">CheckersDeterministicRandomPlayer</text>
</g>
<!-- CheckersPlayer -->
<g id="node4" class="node">
<title>CheckersPlayer</title>
<ellipse fill="none" stroke="black" cx="676.89" cy="-18" rx="67.69" ry="18"/>
<text text-anchor="middle" x="676.89" y="-14.3" font-family="Times,serif" font-size="14.00">CheckersPlayer</text>
</g>
<!-- CheckersDeterministicRandomPlayer&#45;&gt;CheckersPlayer -->
<g id="edge2" class="edge">
<title>CheckersDeterministicRandomPlayer&#45;&gt;CheckersPlayer</title>
<path fill="none" stroke="black" d="M488.73,-73.2C528.86,-61.64 583.05,-46.03 622.96,-34.53"/>
<polygon fill="black" stroke="black" points="624.15,-37.84 632.79,-31.7 622.21,-31.11 624.15,-37.84"/>
</g>
<!-- CheckersMinMax -->
<g id="node5" class="node">
<title>CheckersMinMax</title>
<ellipse fill="none" stroke="black" cx="676.89" cy="-90" rx="76.89" ry="18"/>
<text text-anchor="middle" x="676.89" y="-86.3" font-family="Times,serif" font-size="14.00">CheckersMinMax</text>
</g>
<!-- CheckersMinMax&#45;&gt;CheckersPlayer -->
<g id="edge3" class="edge">
<title>CheckersMinMax&#45;&gt;CheckersPlayer</title>
<path fill="none" stroke="black" d="M676.89,-71.7C676.89,-63.98 676.89,-54.71 676.89,-46.11"/>
<polygon fill="black" stroke="black" points="680.39,-46.1 676.89,-36.1 673.39,-46.1 680.39,-46.1"/>
</g>
<!-- CheckersRandomPlayer -->
<g id="node6" class="node">
<title>CheckersRandomPlayer</title>
<ellipse fill="none" stroke="black" cx="869.89" cy="-90" rx="98.58" ry="18"/>
<text text-anchor="middle" x="869.89" y="-86.3" font-family="Times,serif" font-size="14.00">CheckersRandomPlayer</text>
</g>
<!-- CheckersRandomPlayer&#45;&gt;CheckersPlayer -->
<g id="edge4" class="edge">
<title>CheckersRandomPlayer&#45;&gt;CheckersPlayer</title>
<path fill="none" stroke="black" d="M827.53,-73.64C797.16,-62.62 756.22,-47.77 724.68,-36.33"/>
<polygon fill="black" stroke="black" points="725.81,-33.02 715.22,-32.9 723.42,-39.6 725.81,-33.02"/>
</g>
<!-- PieceCountRatioEvaluator -->
<g id="node7" class="node">
<title>PieceCountRatioEvaluator</title>
<ellipse fill="none" stroke="black" cx="1094.89" cy="-90" rx="107.78" ry="18"/>
<text text-anchor="middle" x="1094.89" y="-86.3" font-family="Times,serif" font-size="14.00">PieceCountRatioEvaluator</text>
</g>
<!-- MinMaxHeuristicEvaluator -->
<g id="node8" class="node">
<title>MinMaxHeuristicEvaluator</title>
<ellipse fill="none" stroke="black" cx="1168.89" cy="-18" rx="111.28" ry="18"/>
<text text-anchor="middle" x="1168.89" y="-14.3" font-family="Times,serif" font-size="14.00">MinMaxHeuristicEvaluator</text>
</g>
<!-- PieceCountRatioEvaluator&#45;&gt;MinMaxHeuristicEvaluator -->
<g id="edge5" class="edge">
<title>PieceCountRatioEvaluator&#45;&gt;MinMaxHeuristicEvaluator</title>
<path fill="none" stroke="black" d="M1112.8,-72.05C1122.07,-63.28 1133.55,-52.43 1143.7,-42.83"/>
<polygon fill="black" stroke="black" points="1146.28,-45.2 1151.14,-35.79 1141.47,-40.12 1146.28,-45.2"/>
</g>
<!-- WeightedPieceCountRatioEvaluator -->
<g id="node9" class="node">
<title>WeightedPieceCountRatioEvaluator</title>
<ellipse fill="none" stroke="black" cx="1362.89" cy="-90" rx="142.17" ry="18"/>
<text text-anchor="middle" x="1362.89" y="-86.3" font-family="Times,serif" font-size="14.00">WeightedPieceCountRatioEvaluator</text>
</g>
<!-- WeightedPieceCountRatioEvaluator&#45;&gt;MinMaxHeuristicEvaluator -->
<g id="edge6" class="edge">
<title>WeightedPieceCountRatioEvaluator&#45;&gt;MinMaxHeuristicEvaluator</title>
<path fill="none" stroke="black" d="M1317.89,-72.76C1289.21,-62.41 1251.91,-48.96 1221.81,-38.09"/>
<polygon fill="black" stroke="black" points="1222.9,-34.77 1212.3,-34.67 1220.52,-41.35 1222.9,-34.77"/>
</g>
<!-- EightByEightBoard -->
<g id="node10" class="node">
<title>EightByEightBoard</title>
<ellipse fill="none" stroke="black" cx="1725.89" cy="-90" rx="83.39" ry="18"/>
<text text-anchor="middle" x="1725.89" y="-86.3" font-family="Times,serif" font-size="14.00">EightByEightBoard</text>
</g>
<!-- Codable -->
<g id="node11" class="node">
<title>Codable</title>
<ellipse fill="none" stroke="black" cx="1868.89" cy="-18" rx="40.89" ry="18"/>
<text text-anchor="middle" x="1868.89" y="-14.3" font-family="Times,serif" font-size="14.00">Codable</text>
</g>
<!-- EightByEightBoard&#45;&gt;Codable -->
<g id="edge7" class="edge">
<title>EightByEightBoard&#45;&gt;Codable</title>
<path fill="none" stroke="black" d="M1757.98,-73.29C1780.42,-62.31 1810.38,-47.64 1833.51,-36.32"/>
<polygon fill="black" stroke="black" points="1835.2,-39.39 1842.64,-31.85 1832.12,-33.1 1835.2,-39.39"/>
</g>
<!-- CustomStringConvertible -->
<g id="node12" class="node">
<title>CustomStringConvertible</title>
<ellipse fill="none" stroke="black" cx="1475.89" cy="-18" rx="103.98" ry="18"/>
<text text-anchor="middle" x="1475.89" y="-14.3" font-family="Times,serif" font-size="14.00">CustomStringConvertible</text>
</g>
<!-- EightByEightBoard&#45;&gt;CustomStringConvertible -->
<g id="edge8" class="edge">
<title>EightByEightBoard&#45;&gt;CustomStringConvertible</title>
<path fill="none" stroke="black" d="M1677.09,-75.34C1637.28,-64.19 1580.79,-48.37 1537.8,-36.33"/>
<polygon fill="black" stroke="black" points="1538.58,-32.92 1528.01,-33.59 1536.69,-39.66 1538.58,-32.92"/>
</g>
<!-- Equatable -->
<g id="node13" class="node">
<title>Equatable</title>
<ellipse fill="none" stroke="black" cx="2132.89" cy="-18" rx="46.59" ry="18"/>
<text text-anchor="middle" x="2132.89" y="-14.3" font-family="Times,serif" font-size="14.00">Equatable</text>
</g>
<!-- EightByEightBoard&#45;&gt;Equatable -->
<g id="edge9" class="edge">
<title>EightByEightBoard&#45;&gt;Equatable</title>
<path fill="none" stroke="black" d="M1786.73,-77.61C1797.12,-75.71 1807.81,-73.78 1817.89,-72 1910.23,-55.7 2018.01,-37.81 2080.55,-27.54"/>
<polygon fill="black" stroke="black" points="2081.26,-30.97 2090.56,-25.9 2080.13,-24.07 2081.26,-30.97"/>
</g>
<!-- Hashable -->
<g id="node14" class="node">
<title>Hashable</title>
<ellipse fill="none" stroke="black" cx="1642.89" cy="-18" rx="44.69" ry="18"/>
<text text-anchor="middle" x="1642.89" y="-14.3" font-family="Times,serif" font-size="14.00">Hashable</text>
</g>
<!-- EightByEightBoard&#45;&gt;Hashable -->
<g id="edge10" class="edge">
<title>EightByEightBoard&#45;&gt;Hashable</title>
<path fill="none" stroke="black" d="M1706.22,-72.41C1695.16,-63.08 1681.2,-51.31 1669.21,-41.2"/>
<polygon fill="black" stroke="black" points="1671.18,-38.28 1661.28,-34.51 1666.67,-43.63 1671.18,-38.28"/>
</g>
<!-- Identifiable -->
<g id="node15" class="node">
<title>Identifiable</title>
<ellipse fill="none" stroke="black" cx="1757.89" cy="-18" rx="51.99" ry="18"/>
<text text-anchor="middle" x="1757.89" y="-14.3" font-family="Times,serif" font-size="14.00">Identifiable</text>
</g>
<!-- EightByEightBoard&#45;&gt;Identifiable -->
<g id="edge11" class="edge">
<title>EightByEightBoard&#45;&gt;Identifiable</title>
<path fill="none" stroke="black" d="M1733.63,-72.05C1737.27,-64.09 1741.7,-54.41 1745.77,-45.51"/>
<polygon fill="black" stroke="black" points="1749.02,-46.83 1749.99,-36.28 1742.65,-43.91 1749.02,-46.83"/>
</g>
<!-- CheckersPieceSelector -->
<g id="node16" class="node">
<title>CheckersPieceSelector</title>
<ellipse fill="none" stroke="black" cx="2132.89" cy="-90" rx="94.48" ry="18"/>
<text text-anchor="middle" x="2132.89" y="-86.3" font-family="Times,serif" font-size="14.00">CheckersPieceSelector</text>
</g>
<!-- CheckersPieceSelector&#45;&gt;Equatable -->
<g id="edge12" class="edge">
<title>CheckersPieceSelector&#45;&gt;Equatable</title>
<path fill="none" stroke="black" d="M2132.89,-71.7C2132.89,-63.98 2132.89,-54.71 2132.89,-46.11"/>
<polygon fill="black" stroke="black" points="2136.39,-46.1 2132.89,-36.1 2129.39,-46.1 2136.39,-46.1"/>
</g>
<!-- PieceSet -->
<g id="node17" class="node">
<title>PieceSet</title>
<ellipse fill="none" stroke="black" cx="1868.89" cy="-90" rx="42.49" ry="18"/>
<text text-anchor="middle" x="1868.89" y="-86.3" font-family="Times,serif" font-size="14.00">PieceSet</text>
</g>
<!-- PieceSet&#45;&gt;Codable -->
<g id="edge13" class="edge">
<title>PieceSet&#45;&gt;Codable</title>
<path fill="none" stroke="black" d="M1868.89,-71.7C1868.89,-63.98 1868.89,-54.71 1868.89,-46.11"/>
<polygon fill="black" stroke="black" points="1872.39,-46.1 1868.89,-36.1 1865.39,-46.1 1872.39,-46.1"/>
</g>
<!-- PieceSet&#45;&gt;Equatable -->
<g id="edge14" class="edge">
<title>PieceSet&#45;&gt;Equatable</title>
<path fill="none" stroke="black" d="M1900.6,-78.01C1906.96,-75.92 1913.61,-73.82 1919.89,-72 1975.45,-55.85 2040.02,-40.22 2083.38,-30.17"/>
<polygon fill="black" stroke="black" points="2084.43,-33.52 2093.39,-27.86 2082.85,-26.7 2084.43,-33.52"/>
</g>
<!-- PieceSet&#45;&gt;Hashable -->
<g id="edge15" class="edge">
<title>PieceSet&#45;&gt;Hashable</title>
<path fill="none" stroke="black" d="M1836.84,-78.14C1830.57,-76.06 1824.03,-73.94 1817.89,-72 1764.38,-55.13 1750.54,-52.42 1696.89,-36 1693.54,-34.98 1690.09,-33.91 1686.61,-32.83"/>
<polygon fill="black" stroke="black" points="1687.44,-29.42 1676.85,-29.78 1685.36,-36.1 1687.44,-29.42"/>
</g>
<!-- PieceSet&#45;&gt;Identifiable -->
<g id="edge16" class="edge">
<title>PieceSet&#45;&gt;Identifiable</title>
<path fill="none" stroke="black" d="M1846.16,-74.67C1830.17,-64.58 1808.53,-50.94 1790.68,-39.68"/>
<polygon fill="black" stroke="black" points="1792.06,-36.41 1781.74,-34.04 1788.33,-42.34 1792.06,-36.41"/>
</g>
<!-- GameState -->
<g id="node18" class="node">
<title>GameState</title>
<ellipse fill="none" stroke="black" cx="1573.89" cy="-90" rx="50.89" ry="18"/>
<text text-anchor="middle" x="1573.89" y="-86.3" font-family="Times,serif" font-size="14.00">GameState</text>
</g>
<!-- GameState&#45;&gt;Codable -->
<g id="edge17" class="edge">
<title>GameState&#45;&gt;Codable</title>
<path fill="none" stroke="black" d="M1611.53,-77.81C1618.91,-75.77 1626.62,-73.73 1633.89,-72 1715.37,-52.57 1737.94,-57.53 1818.89,-36 1822.08,-35.15 1825.36,-34.21 1828.64,-33.21"/>
<polygon fill="black" stroke="black" points="1829.95,-36.46 1838.42,-30.09 1827.83,-29.79 1829.95,-36.46"/>
</g>
<!-- GameState&#45;&gt;CustomStringConvertible -->
<g id="edge18" class="edge">
<title>GameState&#45;&gt;CustomStringConvertible</title>
<path fill="none" stroke="black" d="M1552.14,-73.46C1539.03,-64.1 1522.12,-52.02 1507.55,-41.61"/>
<polygon fill="black" stroke="black" points="1509.46,-38.68 1499.29,-35.71 1505.39,-44.37 1509.46,-38.68"/>
</g>
<!-- GameState&#45;&gt;Hashable -->
<g id="edge19" class="edge">
<title>GameState&#45;&gt;Hashable</title>
<path fill="none" stroke="black" d="M1589.89,-72.76C1598.77,-63.75 1609.98,-52.39 1619.8,-42.43"/>
<polygon fill="black" stroke="black" points="1622.44,-44.73 1626.97,-35.15 1617.46,-39.81 1622.44,-44.73"/>
</g>
<!-- GameState&#45;&gt;Identifiable -->
<g id="edge20" class="edge">
<title>GameState&#45;&gt;Identifiable</title>
<path fill="none" stroke="black" d="M1607.21,-76.32C1637.37,-64.85 1681.98,-47.88 1714.83,-35.38"/>
<polygon fill="black" stroke="black" points="1716.09,-38.65 1724.19,-31.82 1713.6,-32.1 1716.09,-38.65"/>
</g>
<!-- CheckersPiece -->
<g id="node19" class="node">
<title>CheckersPiece</title>
<ellipse fill="none" stroke="black" cx="2689.89" cy="-90" rx="64.19" ry="18"/>
<text text-anchor="middle" x="2689.89" y="-86.3" font-family="Times,serif" font-size="14.00">CheckersPiece</text>
</g>
<!-- Int -->
<g id="node20" class="node">
<title>Int</title>
<ellipse fill="none" stroke="black" cx="2689.89" cy="-18" rx="27" ry="18"/>
<text text-anchor="middle" x="2689.89" y="-14.3" font-family="Times,serif" font-size="14.00">Int</text>
</g>
<!-- CheckersPiece&#45;&gt;Int -->
<g id="edge21" class="edge">
<title>CheckersPiece&#45;&gt;Int</title>
<path fill="none" stroke="black" d="M2689.89,-71.7C2689.89,-63.98 2689.89,-54.71 2689.89,-46.11"/>
<polygon fill="black" stroke="black" points="2693.39,-46.1 2689.89,-36.1 2686.39,-46.1 2693.39,-46.1"/>
</g>
<!-- CaptureDirection -->
<g id="node21" class="node">
<title>CaptureDirection</title>
<ellipse fill="none" stroke="black" cx="2318.89" cy="-90" rx="74.19" ry="18"/>
<text text-anchor="middle" x="2318.89" y="-86.3" font-family="Times,serif" font-size="14.00">CaptureDirection</text>
</g>
<!-- CaptureDirection&#45;&gt;Equatable -->
<g id="edge22" class="edge">
<title>CaptureDirection&#45;&gt;Equatable</title>
<path fill="none" stroke="black" d="M2280.35,-74.5C2249.49,-62.88 2206.28,-46.62 2174.61,-34.7"/>
<polygon fill="black" stroke="black" points="2175.77,-31.4 2165.18,-31.15 2173.31,-37.95 2175.77,-31.4"/>
</g>
<!-- Direction -->
<g id="node22" class="node">
<title>Direction</title>
<ellipse fill="none" stroke="black" cx="2455.89" cy="-90" rx="44.69" ry="18"/>
<text text-anchor="middle" x="2455.89" y="-86.3" font-family="Times,serif" font-size="14.00">Direction</text>
</g>
<!-- Direction&#45;&gt;Equatable -->
<g id="edge23" class="edge">
<title>Direction&#45;&gt;Equatable</title>
<path fill="none" stroke="black" d="M2422.64,-77.9C2415.81,-75.8 2408.65,-73.72 2401.89,-72 2327.36,-52.99 2239.74,-36.86 2185.25,-27.55"/>
<polygon fill="black" stroke="black" points="2185.59,-24.06 2175.14,-25.84 2184.42,-30.96 2185.59,-24.06"/>
</g>
<!-- UpDown -->
<g id="node23" class="node">
<title>UpDown</title>
<ellipse fill="none" stroke="black" cx="2562.89" cy="-90" rx="44.39" ry="18"/>
<text text-anchor="middle" x="2562.89" y="-86.3" font-family="Times,serif" font-size="14.00">UpDown</text>
</g>
<!-- UpDown&#45;&gt;Equatable -->
<g id="edge24" class="edge">
<title>UpDown&#45;&gt;Equatable</title>
<path fill="none" stroke="black" d="M2530.62,-77.68C2523.83,-75.58 2516.67,-73.55 2509.89,-72 2396.97,-46.15 2261.97,-30.86 2188.04,-23.78"/>
<polygon fill="black" stroke="black" points="2188.31,-20.29 2178.03,-22.83 2187.65,-27.26 2188.31,-20.29"/>
</g>
<!-- LeftRight -->
<g id="node24" class="node">
<title>LeftRight</title>
<ellipse fill="none" stroke="black" cx="1974.89" cy="-90" rx="46.29" ry="18"/>
<text text-anchor="middle" x="1974.89" y="-86.3" font-family="Times,serif" font-size="14.00">LeftRight</text>
</g>
<!-- LeftRight&#45;&gt;Equatable -->
<g id="edge25" class="edge">
<title>LeftRight&#45;&gt;Equatable</title>
<path fill="none" stroke="black" d="M2004.24,-76C2029.54,-64.79 2066.28,-48.51 2094.02,-36.22"/>
<polygon fill="black" stroke="black" points="2095.7,-39.3 2103.43,-32.05 2092.87,-32.9 2095.7,-39.3"/>
</g>
</g>
</svg>
