<?xml version="1.0" encoding="UTF-8" standalone="no"?>
<!DOCTYPE svg PUBLIC "-//W3C//DTD SVG 1.1//EN"
 "http://www.w3.org/Graphics/SVG/1.1/DTD/svg11.dtd">
<!-- Generated by graphviz version 2.48.0 (20210717.1556)
 -->
<!-- Pages: 1 -->
<svg width="1045pt" height="116pt"
 viewBox="0.00 0.00 1044.88 116.00" xmlns="http://www.w3.org/2000/svg" xmlns:xlink="http://www.w3.org/1999/xlink">
<g id="graph0" class="graph" transform="scale(1 1) rotate(0) translate(4 112)">
<polygon fill="white" stroke="transparent" points="-4,4 -4,-112 1040.88,-112 1040.88,4 -4,4"/>
<!-- CheckersDeterministicRandomPlayer -->
<g id="node1" class="node">
<title>CheckersDeterministicRandomPlayer</title>
<ellipse fill="none" stroke="black" cx="148.19" cy="-90" rx="148.37" ry="18"/>
<text text-anchor="middle" x="148.19" y="-86.3" font-family="Times,serif" font-size="14.00">CheckersDeterministicRandomPlayer</text>
</g>
<!-- CheckersPlayer -->
<g id="node2" class="node">
<title>CheckersPlayer</title>
<ellipse fill="none" stroke="black" cx="391.19" cy="-18" rx="67.69" ry="18"/>
<text text-anchor="middle" x="391.19" y="-14.3" font-family="Times,serif" font-size="14.00">CheckersPlayer</text>
</g>
<!-- CheckersDeterministicRandomPlayer&#45;&gt;CheckersPlayer -->
<g id="edge1" class="edge">
<title>CheckersDeterministicRandomPlayer&#45;&gt;CheckersPlayer</title>
<path fill="none" stroke="black" d="M203.02,-73.2C243.16,-61.64 297.34,-46.03 337.26,-34.53"/>
<polygon fill="black" stroke="black" points="338.45,-37.84 347.09,-31.7 336.51,-31.11 338.45,-37.84"/>
</g>
<!-- CheckersMinMax -->
<g id="node3" class="node">
<title>CheckersMinMax</title>
<ellipse fill="none" stroke="black" cx="391.19" cy="-90" rx="76.89" ry="18"/>
<text text-anchor="middle" x="391.19" y="-86.3" font-family="Times,serif" font-size="14.00">CheckersMinMax</text>
</g>
<!-- CheckersMinMax&#45;&gt;CheckersPlayer -->
<g id="edge2" class="edge">
<title>CheckersMinMax&#45;&gt;CheckersPlayer</title>
<path fill="none" stroke="black" d="M391.19,-71.7C391.19,-63.98 391.19,-54.71 391.19,-46.11"/>
<polygon fill="black" stroke="black" points="394.69,-46.1 391.19,-36.1 387.69,-46.1 394.69,-46.1"/>
</g>
<!-- CheckersRandomPlayer -->
<g id="node4" class="node">
<title>CheckersRandomPlayer</title>
<ellipse fill="none" stroke="black" cx="584.19" cy="-90" rx="98.58" ry="18"/>
<text text-anchor="middle" x="584.19" y="-86.3" font-family="Times,serif" font-size="14.00">CheckersRandomPlayer</text>
</g>
<!-- CheckersRandomPlayer&#45;&gt;CheckersPlayer -->
<g id="edge3" class="edge">
<title>CheckersRandomPlayer&#45;&gt;CheckersPlayer</title>
<path fill="none" stroke="black" d="M541.83,-73.64C511.46,-62.62 470.52,-47.77 438.98,-36.33"/>
<polygon fill="black" stroke="black" points="440.11,-33.02 429.51,-32.9 437.72,-39.6 440.11,-33.02"/>
</g>
<!-- PieceCountRatioEvaluator -->
<g id="node5" class="node">
<title>PieceCountRatioEvaluator</title>
<ellipse fill="none" stroke="black" cx="809.19" cy="-90" rx="107.78" ry="18"/>
<text text-anchor="middle" x="809.19" y="-86.3" font-family="Times,serif" font-size="14.00">PieceCountRatioEvaluator</text>
</g>
<!-- MinMaxHeuristicEvaluator -->
<g id="node6" class="node">
<title>MinMaxHeuristicEvaluator</title>
<ellipse fill="none" stroke="black" cx="809.19" cy="-18" rx="111.28" ry="18"/>
<text text-anchor="middle" x="809.19" y="-14.3" font-family="Times,serif" font-size="14.00">MinMaxHeuristicEvaluator</text>
</g>
<!-- PieceCountRatioEvaluator&#45;&gt;MinMaxHeuristicEvaluator -->
<g id="edge4" class="edge">
<title>PieceCountRatioEvaluator&#45;&gt;MinMaxHeuristicEvaluator</title>
<path fill="none" stroke="black" d="M809.19,-71.7C809.19,-63.98 809.19,-54.71 809.19,-46.11"/>
<polygon fill="black" stroke="black" points="812.69,-46.1 809.19,-36.1 805.69,-46.1 812.69,-46.1"/>
</g>
<!-- GameState -->
<g id="node7" class="node">
<title>GameState</title>
<ellipse fill="none" stroke="black" cx="986.19" cy="-90" rx="50.89" ry="18"/>
<text text-anchor="middle" x="986.19" y="-86.3" font-family="Times,serif" font-size="14.00">GameState</text>
</g>
<!-- Hashable -->
<g id="node8" class="node">
<title>Hashable</title>
<ellipse fill="none" stroke="black" cx="986.19" cy="-18" rx="44.69" ry="18"/>
<text text-anchor="middle" x="986.19" y="-14.3" font-family="Times,serif" font-size="14.00">Hashable</text>
</g>
<!-- GameState&#45;&gt;Hashable -->
<g id="edge5" class="edge">
<title>GameState&#45;&gt;Hashable</title>
<path fill="none" stroke="black" d="M986.19,-71.7C986.19,-63.98 986.19,-54.71 986.19,-46.11"/>
<polygon fill="black" stroke="black" points="989.69,-46.1 986.19,-36.1 982.69,-46.1 989.69,-46.1"/>
</g>
</g>
</svg>
